<svg xmlns="http://www.w3.org/2000/svg" width="800" height="400" viewBox="0 0 800 400">
  <rect width="800" height="400" fill="#f5f7fa"/>
  <g transform="translate(400, 180)">
    <rect x="-150" y="-100" width="300" height="200" rx="20" fill="#3498db" opacity="0.2"/>
    <g transform="translate(-80, -40)">
      <path d="M0,0 C0,0 -30,-40 -20,-60 C-10,-80 20,-80 30,-60 C40,-40 10,0 0,0 Z" fill="#3498db"/>
      <path d="M-10,-30 C-10,-30 0,-50 10,-30" stroke="white" stroke-width="2" fill="none"/>
    </g>
    <g transform="translate(0, -40)">
      <path d="M0,0 C0,0 -20,-30 -15,-45 C-10,-60 15,-60 20,-45 C25,-30 5,0 0,0 Z" fill="#3498db"/>
      <path d="M-5,-20 C-5,-20 0,-35 5,-20" stroke="white" stroke-width="2" fill="none"/>
    </g>
    <g transform="translate(80, -40)">
      <path d="M0,0 C0,0 -40,-50 -25,-75 C-10,-100 30,-100 45,-75 C60,-50 20,0 0,0 Z" fill="#3498db"/>
      <path d="M-15,-40 C-15,-40 0,-60 15,-40" stroke="white" stroke-width="2" fill="none"/>
    </g>
    <g transform="translate(0, 40)">
      <rect x="-120" y="-15" width="240" height="30" rx="5" fill="#3498db"/>
      <text x="0" y="-5" font-family="Arial" font-size="12" fill="white" text-anchor="middle">Customized Lice Removal Strategies</text>
      <text x="0" y="10" font-family="Arial" font-size="12" fill="white" text-anchor="middle">for Different Hair Types</text>
    </g>
  </g>
  <text x="400" y="350" font-family="Arial" font-size="20" fill="#2c3e50" text-anchor="middle">Lice Treatment Methods for Different Hair Types:</text>
  <text x="400" y="375" font-family="Arial" font-size="20" fill="#2c3e50" text-anchor="middle">Customized Removal Strategies</text>
</svg>