<svg xmlns="http://www.w3.org/2000/svg" width="800" height="400" viewBox="0 0 800 400">
  <rect width="800" height="400" fill="#f5f7fa"/>
  <g transform="translate(400, 180)">
    <rect x="-100" y="-80" width="200" height="160" rx="10" fill="#3498db" opacity="0.2"/>
    <g transform="translate(-50, -40)">
      <rect x="-40" y="-30" width="80" height="60" rx="5" fill="#3498db"/>
      <rect x="-30" y="-20" width="60" height="10" rx="2" fill="white"/>
      <rect x="-30" y="-5" width="40" height="10" rx="2" fill="white"/>
      <rect x="-30" y="10" width="50" height="10" rx="2" fill="white"/>
    </g>
    <g transform="translate(50, -40)">
      <path d="M0,0 L40,0 L40,60 L0,60 Z" fill="#3498db"/>
      <path d="M10,15 L30,15 M10,30 L30,30 M10,45 L30,45" stroke="white" stroke-width="3" stroke-linecap="round"/>
    </g>
    <g transform="translate(0, 50)">
      <path d="M-90,0 L90,0" stroke="#3498db" stroke-width="4" stroke-dasharray="8 4"/>
      <circle cx="-60" cy="0" r="10" fill="#3498db"/>
      <circle cx="0" cy="0" r="10" fill="#3498db"/>
      <circle cx="60" cy="0" r="10" fill="#3498db"/>
    </g>
  </g>
  <text x="400" y="350" font-family="Arial" font-size="20" fill="#2c3e50" text-anchor="middle">Electronic Lice Device User Guide:</text>
  <text x="400" y="375" font-family="Arial" font-size="20" fill="#2c3e50" text-anchor="middle">Detailed Steps to Maximize Treatment Effectiveness</text>
</svg>