<svg xmlns="http://www.w3.org/2000/svg" width="800" height="400" viewBox="0 0 800 400">
  <rect width="800" height="400" fill="#f5f7fa"/>
  <g transform="translate(350, 200)">
    <circle cx="0" cy="0" r="120" fill="#3498db" opacity="0.2"/>
    <g transform="translate(-60, -60)">
      <path d="M60,0 C60,33.137 33.137,60 0,60 C-33.137,60 -60,33.137 -60,0 C-60,-33.137 -33.137,-60 0,-60 C33.137,-60 60,-33.137 60,0 Z" fill="#3498db"/>
      <circle cx="-20" cy="-20" r="10" fill="white"/>
      <path d="M30,0 C30,16.569 16.569,30 0,30 C-16.569,30 -30,16.569 -30,0 C-30,-16.569 -16.569,-30 0,-30 C16.569,-30 30,-16.569 30,0 Z" fill="white"/>
      <path d="M0,60 L0,120" stroke="#3498db" stroke-width="6"/>
      <path d="M-30,90 L30,90" stroke="#3498db" stroke-width="6"/>
    </g>
  </g>
  <text x="400" y="350" font-family="Arial" font-size="20" fill="#2c3e50" text-anchor="middle">Lice Prevention: 7 Tips to Protect Your Child</text>
  <text x="400" y="375" font-family="Arial" font-size="20" fill="#2c3e50" text-anchor="middle">from School Lice Infestations</text>
</svg>